<svg width="89" height="88" viewBox="0 0 89 88" fill="none" xmlns="http://www.w3.org/2000/svg">
<g filter="url(#filter0_d_882_3221)">
<path opacity="0.3" d="M84.5 40C84.5 62.0914 66.5914 80 44.5 80C22.4086 80 4.5 62.0914 4.5 40C4.5 17.9086 22.4086 0 44.5 0C66.5914 0 84.5 17.9086 84.5 40ZM15.4071 40C15.4071 56.0675 28.4325 69.0929 44.5 69.0929C60.5675 69.0929 73.5929 56.0675 73.5929 40C73.5929 23.9325 60.5675 10.9071 44.5 10.9071C28.4325 10.9071 15.4071 23.9325 15.4071 40Z" fill="#2F2E30"/>
<circle cx="44.5" cy="40" r="29" fill="black"/>
<path d="M58.6416 25H51.9883L52.8216 33.3333C52.8216 33.3333 54.4883 35 56.9883 35C58.3006 35.0017 59.5684 34.524 60.5533 33.6567C60.6574 33.5594 60.735 33.4372 60.7787 33.3016C60.8224 33.166 60.8309 33.0214 60.8033 32.8817L59.6266 25.8333C59.5873 25.6005 59.4668 25.3891 59.2865 25.2366C59.1062 25.084 58.8778 25.0002 58.6416 25V25Z" stroke="white" stroke-width="2"/>
<path d="M51.9883 25L52.8216 33.3333C52.8216 33.3333 51.1549 35 48.6549 35C46.1549 35 44.4883 33.3333 44.4883 33.3333V25H51.9883Z" stroke="#FAFAFA" stroke-width="2"/>
<path d="M44.4886 25V33.3333C44.4886 33.3333 42.8219 35 40.3219 35C37.8219 35 36.1553 33.3333 36.1553 33.3333L36.9886 25H44.4886Z" stroke="#FAFAFA" stroke-width="2"/>
<path d="M36.9883 25H30.3366C30.0999 24.9999 29.8709 25.0838 29.6902 25.2367C29.5096 25.3896 29.389 25.6016 29.3499 25.835L28.1749 32.8833C28.1475 33.0231 28.156 33.1676 28.1997 33.3032C28.2435 33.4387 28.321 33.5609 28.4249 33.6583C28.9716 34.1417 30.1933 35.0017 31.9883 35.0017C34.4883 35.0017 36.1549 33.335 36.1549 33.335L36.9883 25.0017V25Z" stroke="#FAFAFA" stroke-width="2"/>
<path d="M29.5 35V51.6667C29.5 52.5507 29.8512 53.3986 30.4763 54.0237C31.1014 54.6488 31.9493 55 32.8333 55H56.1667C57.0507 55 57.8986 54.6488 58.5237 54.0237C59.1488 53.3986 59.5 52.5507 59.5 51.6667V35" stroke="#FAFAFA" stroke-width="2"/>
<path d="M49.2217 55V45C49.2217 44.1159 48.8705 43.2681 48.2454 42.6429C47.6202 42.0178 46.7724 41.6666 45.8883 41.6666H42.555C41.671 41.6666 40.8231 42.0178 40.198 42.6429C39.5729 43.2681 39.2217 44.1159 39.2217 45V55" stroke="#FAFAFA" stroke-width="2" stroke-miterlimit="16"/>
</g>
<defs>
<filter id="filter0_d_882_3221" x="0.5" y="0" width="88" height="88" filterUnits="userSpaceOnUse" color-interpolation-filters="sRGB">
<feFlood flood-opacity="0" result="BackgroundImageFix"/>
<feColorMatrix in="SourceAlpha" type="matrix" values="0 0 0 0 0 0 0 0 0 0 0 0 0 0 0 0 0 0 127 0" result="hardAlpha"/>
<feOffset dy="4"/>
<feGaussianBlur stdDeviation="2"/>
<feComposite in2="hardAlpha" operator="out"/>
<feColorMatrix type="matrix" values="0 0 0 0 0 0 0 0 0 0 0 0 0 0 0 0 0 0 0.25 0"/>
<feBlend mode="normal" in2="BackgroundImageFix" result="effect1_dropShadow_882_3221"/>
<feBlend mode="normal" in="SourceGraphic" in2="effect1_dropShadow_882_3221" result="shape"/>
</filter>
</defs>
</svg>
